# xmcd
#
# Track frame offsets:
#       150
#       12448
#       29285
#       38925
#       62601
#       73745
#       87718
#       97076
#       113939
#       127389
#       142383
#       157302
#       172712
#       191034
#       202761
#       217627
#       228544
#       245673
#       268775
#       284577
#
# Disc length: 3924 seconds
#
# Revision: 2
# Processed by: cddbd v1.5.2PL0 Copyright (c) Steve Scherf et al.
# Submitted via: FreeDbEdit v0.1
#
DISCID=3c0f5214
DTITLE=Various Artist - A Country Christmas From The Legends, Volume 1
DYEAR=1994
DGENRE=Country
TTITLE0=Mickey Gilley - Joy to the World
TTITLE1=Bill Anderson - The First Noel
TTITLE2=Boxcar Willie - Up on the Housetop
TTITLE3=Larry Gatlin - O Holy Night
TTITLE4=Porter Wagoner - Jingle Bells
TTITLE5=Lee Greenwood - What Child Is This
TTITLE6=Tom T Hall - Jolly Old Saint Nicholas
TTITLE7=Willie Nelson - Pretty Paper
TTITLE8=Roy Clark - God Rest Ye Merry Gentlemen
TTITLE9=Loretta Lynn - Away in a Manger
TTITLE10=Louise Mandrell - All I Want for Christmas
TTITLE11=Tom T Hall - O Christmas Tree
TTITLE12=Brenda Lee - Silent Night
TTITLE13=Merle Haggard - If We Make It Through
TTITLE14=Waylon Jennings - O Come All Ye Faithful
TTITLE15=Boxcar Willie - Deck the Halls
TTITLE16=Charley Pride - O Little Town of Bethlehem
TTITLE17=Lee Greenwood - The Twelve Days of Christmas
TTITLE18=Roy Clark - It Came Upon a Midnight Clear
TTITLE19=Willie Nelson - We Wish You a Merry Christmas
EXTD=Big Mama CD's And Cassettes TPCD100
EXTT0=
EXTT1=
EXTT2=
EXTT3=
EXTT4=
EXTT5=
EXTT6=
EXTT7=
EXTT8=
EXTT9=
EXTT10=
EXTT11=
EXTT12=
EXTT13=
EXTT14=
EXTT15=
EXTT16=
EXTT17=
EXTT18=
EXTT19=
PLAYORDER=
